<?xml version="1.0" encoding="UTF-8" standalone="no"?>
<svg xmlns:ffdec="https://www.free-decompiler.com/flash" xmlns:xlink="http://www.w3.org/1999/xlink" ffdec:objectType="shape" height="501.7px" width="725.55px" xmlns="http://www.w3.org/2000/svg">
  <g transform="matrix(1.0, 0.0, 0.0, 1.0, 22.35, -15.6)">
    <path d="M700.5 226.55 L700.5 231.05 698.1 231.05 698.1 226.55 700.5 226.55" fill="#796f5a" fill-rule="evenodd" stroke="none"/>
    <path d="M131.8 212.1 L131.55 211.65 131.8 211.25 131.8 212.1" fill="url(#gradient0)" fill-rule="evenodd" stroke="none"/>
    <path d="M13.0 220.7 L12.05 220.35 13.0 220.7" fill="url(#gradient1)" fill-rule="evenodd" stroke="none"/>
    <path d="M-22.35 217.0 L-22.35 216.95 -22.25 217.0 -22.25 217.05 -22.35 217.0" fill="url(#gradient2)" fill-rule="evenodd" stroke="none"/>
    <path d="M699.0 65.6 L699.0 285.2 47.0 285.2 47.0 65.6 699.0 65.6" fill="url(#gradient3)" fill-rule="evenodd" stroke="none"/>
    <path d="M702.9 495.25 Q702.9 504.35 695.55 510.8 688.25 517.3 677.9 517.3 L67.4 517.3 Q57.05 517.3 49.7 510.8 42.4 504.35 42.4 495.25 L42.4 241.1 702.9 241.1 702.9 495.25" fill="#796f5a" fill-rule="evenodd" stroke="none"/>
    <path d="M48.05 471.6 Q48.3 479.8 55.25 485.7 62.45 491.75 72.65 491.8 L676.6 491.8 676.6 491.65 Q684.7 490.8 690.75 485.7 697.75 479.8 697.95 471.6 L697.95 491.05 Q697.95 499.6 690.75 505.7 684.7 510.8 676.6 511.65 L676.6 511.8 72.65 511.8 Q62.45 511.75 55.25 505.7 48.05 499.6 48.05 491.05 L48.05 471.6" fill="url(#gradient4)" fill-rule="evenodd" stroke="none"/>
    <path d="M697.95 471.6 Q697.75 479.8 690.75 485.7 684.7 490.8 676.6 491.65 L676.6 491.8 72.65 491.8 Q62.45 491.75 55.25 485.7 48.3 479.8 48.05 471.6 L48.05 247.15 697.95 247.15 697.95 471.6" fill="url(#gradient5)" fill-rule="evenodd" stroke="none"/>
    <path d="M44.7 266.5 L45.2 47.1 Q46.1 18.95 74.85 18.1 L120.7 18.15 120.9 18.15 671.05 18.35 Q699.8 19.2 700.7 47.35 L700.7 275.5" fill="none" stroke="#796f5a" stroke-linecap="round" stroke-linejoin="round" stroke-width="5.0"/>
  </g>
  <defs>
    <linearGradient gradientTransform="matrix(-0.0541, -0.0871, 0.1073, -0.072, 93.35, 236.15)" gradientUnits="userSpaceOnUse" id="gradient0" spreadMethod="pad" x1="-819.2" x2="819.2">
      <stop offset="0.0" stop-color="#b9aa8a"/>
      <stop offset="0.7764705882352941" stop-color="#756448"/>
    </linearGradient>
    <linearGradient gradientTransform="matrix(0.9108, 0.0, 0.0, 0.9463, 10.7, -8.95)" gradientUnits="userSpaceOnUse" id="gradient1" spreadMethod="pad" x1="-819.2" x2="819.2">
      <stop offset="0.08235294117647059" stop-color="#ac9a72"/>
      <stop offset="1.0" stop-color="#756448"/>
    </linearGradient>
    <linearGradient gradientTransform="matrix(0.9108, 0.0, 0.0, 0.9463, -25.35, -12.95)" gradientUnits="userSpaceOnUse" id="gradient2" spreadMethod="pad" x1="-819.2" x2="819.2">
      <stop offset="0.08235294117647059" stop-color="#ac9a72"/>
      <stop offset="1.0" stop-color="#756448"/>
    </linearGradient>
    <linearGradient gradientTransform="matrix(-7.0E-4, 0.1616, 0.1514, 7.0E-4, 334.7, 296.3)" gradientUnits="userSpaceOnUse" id="gradient3" spreadMethod="pad" x1="-819.2" x2="819.2">
      <stop offset="0.0" stop-color="#ebe3cb"/>
      <stop offset="1.0" stop-color="#655134"/>
    </linearGradient>
    <linearGradient gradientTransform="matrix(-7.0E-4, -0.1614, 0.1509, -7.0E-4, 334.8, 256.05)" gradientUnits="userSpaceOnUse" id="gradient4" spreadMethod="pad" x1="-819.2" x2="819.2">
      <stop offset="0.0" stop-color="#ebe3cb"/>
      <stop offset="1.0" stop-color="#655134"/>
    </linearGradient>
    <linearGradient gradientTransform="matrix(-7.0E-4, -0.1614, 0.1509, -7.0E-4, 334.8, 236.05)" gradientUnits="userSpaceOnUse" id="gradient5" spreadMethod="pad" x1="-819.2" x2="819.2">
      <stop offset="0.0" stop-color="#ebe3cb"/>
      <stop offset="1.0" stop-color="#655134"/>
    </linearGradient>
  </defs>
</svg>
