<?xml version="1.0" encoding="UTF-8" standalone="no"?>
<svg xmlns:ffdec="https://www.free-decompiler.com/flash" xmlns:xlink="http://www.w3.org/1999/xlink" ffdec:objectType="shape" height="20.2px" width="20.5px" xmlns="http://www.w3.org/2000/svg">
  <g transform="matrix(1.0, 0.0, 0.0, 1.0, 0.25, 0.25)">
    <path d="M14.75 7.85 L13.4 7.6 Q11.85 7.6 10.7 8.7 10.2 9.2 9.95 9.85 L9.2 8.7 9.05 8.55 8.85 8.4 Q7.85 7.6 6.5 7.6 L5.15 7.85 5.6 7.35 Q7.4 5.55 9.95 5.55 12.5 5.55 14.25 7.35 L14.75 7.85 M4.55 14.65 L6.5 15.15 Q8.05 15.15 9.2 14.0 L9.9 13.0 10.0 13.0 10.05 13.15 10.7 14.0 Q11.85 15.15 13.4 15.15 L15.35 14.65 14.25 16.0 Q12.5 17.8 9.95 17.8 7.4 17.8 5.6 16.0 L4.55 14.65" fill="#169ad1" fill-opacity="0.9607843" fill-rule="evenodd" stroke="none"/>
    <path d="M14.75 7.85 Q16.1 9.45 16.1 11.7 16.1 13.35 15.35 14.65 L13.4 15.15 Q11.85 15.15 10.7 14.0 L10.05 13.15 10.0 13.0 9.95 12.9 9.9 13.0 9.2 14.0 Q8.05 15.15 6.5 15.15 L4.55 14.65 Q3.8 13.3 3.8 11.7 3.8 9.5 5.15 7.85 L6.5 7.6 Q7.85 7.6 8.85 8.4 L9.05 8.55 9.2 8.7 9.95 9.85 Q10.2 9.2 10.7 8.7 11.85 7.6 13.4 7.6 L14.75 7.85" fill="url(#gradient0)" fill-rule="evenodd" stroke="none"/>
    <path d="M9.9 13.0 L9.95 12.9 10.0 13.0 9.9 13.0" fill="#8ea3f0" fill-rule="evenodd" stroke="none"/>
    <path d="M15.35 14.65 Q16.1 13.35 16.1 11.7 16.1 9.45 14.75 7.85 L14.25 7.35 Q12.5 5.55 9.95 5.55 7.4 5.55 5.6 7.35 L5.15 7.85 Q3.8 9.5 3.8 11.7 3.8 13.3 4.55 14.65 L5.6 16.0 Q7.4 17.8 9.95 17.8 12.5 17.8 14.25 16.0 L15.35 14.65 Z" ffdec:has-small-stroke="true" ffdec:original-stroke-width="0.5" fill="none" stroke="#14120d" stroke-linecap="round" stroke-linejoin="round" stroke-opacity="0.4627451" stroke-width="1.0"/>
    <path d="M3.05 10.85 L3.3 11.15 3.55 11.4 Q4.55 12.25 5.95 12.25 7.55 12.25 8.65 11.15 L9.45 10.05 10.2 11.15 10.35 11.3 10.5 11.4 Q11.5 12.25 12.9 12.25 14.45 12.25 15.55 11.15 16.65 10.05 16.7 8.5 L16.55 7.45 Q17.4 8.45 17.4 9.85 17.4 11.45 16.3 12.55 15.2 13.65 13.65 13.65 12.05 13.65 10.95 12.55 L10.3 11.65 10.15 11.4 10.1 11.5 9.4 12.55 Q8.25 13.65 6.7 13.65 5.1 13.65 4.05 12.55 L3.35 11.6 3.05 10.85" fill="#cbcfc0" fill-opacity="0.9607843" fill-rule="evenodd" stroke="none"/>
    <path d="M16.55 7.45 L16.7 8.5 Q16.65 10.05 15.55 11.15 14.45 12.25 12.9 12.25 11.5 12.25 10.5 11.4 L10.35 11.3 10.2 11.15 9.45 10.05 8.65 11.15 Q7.55 12.25 5.95 12.25 4.55 12.25 3.55 11.4 L3.3 11.15 3.05 10.85 Q2.9 10.35 2.9 9.85 2.9 8.3 4.05 7.2 5.1 6.1 6.7 6.1 8.05 6.1 9.05 6.9 L9.25 7.05 9.4 7.2 10.15 8.3 Q10.4 7.7 10.95 7.2 12.05 6.1 13.65 6.1 15.0 6.1 16.0 6.95 L16.3 7.2 16.55 7.45" fill="#ffffff" fill-rule="evenodd" stroke="none"/>
    <path d="M3.05 10.85 L3.35 11.6 4.05 12.55 Q5.1 13.65 6.7 13.65 8.25 13.65 9.4 12.55 L10.1 11.5 10.15 11.4 10.3 11.65 10.95 12.55 Q12.05 13.65 13.65 13.65 15.2 13.65 16.3 12.55 17.4 11.45 17.4 9.85 17.4 8.45 16.55 7.45 L16.3 7.2 16.0 6.95 Q15.0 6.1 13.65 6.1 12.05 6.1 10.95 7.2 10.4 7.7 10.15 8.3 L9.4 7.2 9.25 7.05 9.05 6.9 Q8.05 6.1 6.7 6.1 5.1 6.1 4.05 7.2 2.9 8.3 2.9 9.85 2.9 10.35 3.05 10.85 Z" ffdec:has-small-stroke="true" ffdec:original-stroke-width="0.5" fill="none" stroke="#14120d" stroke-linecap="round" stroke-linejoin="round" stroke-opacity="0.4627451" stroke-width="1.0"/>
    <path d="M12.8 8.2 L12.15 8.25 Q11.85 8.2 11.75 7.95 L11.8 7.45 12.3 7.05 12.95 6.95 13.35 7.25 13.3 7.75 12.8 8.2" fill="#000000" fill-rule="evenodd" stroke="none"/>
    <path d="M7.1 8.9 Q6.5 8.65 6.25 8.15 5.95 7.65 6.1 7.25 L6.9 6.75 8.05 6.9 8.9 7.7 Q9.2 8.15 9.0 8.55 L8.25 9.1 7.1 8.9" fill="#000000" fill-rule="evenodd" stroke="none"/>
    <path d="M7.7 13.6 L8.0 13.15 Q8.8 12.0 9.9 12.0 11.05 12.0 11.8 13.15 L12.1 13.6 7.7 13.6" fill="#cfccb4" fill-opacity="0.9607843" fill-rule="evenodd" stroke="none"/>
    <path d="M12.4 17.4 L11.8 18.55 Q11.05 19.7 9.9 19.7 L9.75 19.7 Q8.75 19.65 8.0 18.55 L7.4 17.3 7.25 16.6 7.55 17.5 8.7 17.85 9.55 18.35 9.75 18.3 9.75 19.7 9.75 18.3 11.25 17.7 12.25 17.6 12.4 17.4" fill="#b65730" fill-opacity="0.9607843" fill-rule="evenodd" stroke="none"/>
    <path d="M12.1 13.6 Q12.6 14.6 12.6 15.85 L12.6 16.55 12.75 16.65 12.45 17.25 12.4 17.3 12.4 17.4 12.25 17.6 Q9.9 15.15 7.55 17.5 L7.25 16.6 7.2 15.85 Q7.2 14.6 7.7 13.6 L12.1 13.6 M12.6 16.55 L12.45 17.25 12.6 16.55" fill="#260d0d" fill-rule="evenodd" stroke="none"/>
    <path d="M9.75 18.3 L9.55 18.35 8.7 17.85 7.55 17.5 Q9.9 15.15 12.25 17.6 L11.25 17.7 9.75 18.3 9.75 17.45 9.75 18.3" fill="#b65730" fill-rule="evenodd" stroke="none"/>
    <path d="M7.7 13.6 L8.0 13.15 Q8.8 12.0 9.9 12.0 11.05 12.0 11.8 13.15 L12.1 13.6 Q12.6 14.6 12.6 15.85 L12.6 16.55 12.45 17.25 12.4 17.3 12.4 17.4 11.8 18.55 Q11.05 19.7 9.9 19.7 L9.75 19.7 Q8.75 19.65 8.0 18.55 L7.4 17.3 7.25 16.6 7.2 15.85 Q7.2 14.6 7.7 13.6 M7.55 17.5 Q9.9 15.15 12.25 17.6 M9.75 18.3 L9.75 17.45 M9.75 19.7 L9.75 18.3" ffdec:has-small-stroke="true" ffdec:original-stroke-width="0.5" fill="none" stroke="#14120d" stroke-linecap="round" stroke-linejoin="round" stroke-opacity="0.44313726" stroke-width="1.0"/>
    <path d="M12.6 16.55 L12.75 16.65 12.45 17.25 12.4 17.4 12.25 17.6 M7.55 17.5 L7.25 16.6" ffdec:has-small-stroke="true" ffdec:original-stroke-width="0.5" fill="none" stroke="#14120d" stroke-linecap="round" stroke-linejoin="round" stroke-opacity="0.2" stroke-width="1.0"/>
    <path d="M7.7 13.6 L12.1 13.6" ffdec:has-small-stroke="true" ffdec:original-stroke-width="0.5" fill="none" stroke="#14120d" stroke-linecap="round" stroke-linejoin="round" stroke-opacity="0.23137255" stroke-width="1.0"/>
    <path d="M8.95 18.55 L8.7 18.45 8.55 18.15 8.7 17.85 8.95 17.7 9.25 17.85 9.4 18.15 9.25 18.45 8.95 18.55" fill="#f2c663" fill-opacity="0.8" fill-rule="evenodd" stroke="none"/>
    <path d="M2.05 6.35 L0.0 4.55 M9.95 3.1 L9.95 0.0 M17.65 5.9 L20.0 3.95" ffdec:has-small-stroke="true" ffdec:original-stroke-width="0.5" fill="none" stroke="#01347e" stroke-linecap="round" stroke-linejoin="round" stroke-width="1.0"/>
  </g>
  <defs>
    <linearGradient gradientTransform="matrix(-1.0E-4, 0.0044, -0.0046, -1.0E-4, 9.95, 12.7)" gradientUnits="userSpaceOnUse" id="gradient0" spreadMethod="pad" x1="-819.2" x2="819.2">
      <stop offset="0.40784313725490196" stop-color="#075c81" stop-opacity="0.9607843"/>
      <stop offset="1.0" stop-color="#8ea3f0"/>
    </linearGradient>
  </defs>
</svg>
