<?xml version="1.0" encoding="UTF-8" standalone="no"?>
<svg xmlns:ffdec="https://www.free-decompiler.com/flash" xmlns:xlink="http://www.w3.org/1999/xlink" ffdec:objectType="shape" height="8.9px" width="9.0px" xmlns="http://www.w3.org/2000/svg">
  <g transform="matrix(1.0, 0.0, 0.0, 1.0, -2.95, -3.0)">
    <path d="M11.8 5.95 L11.8 8.85 8.95 8.85 8.95 11.75 6.0 11.75 6.0 8.85 3.1 8.85 3.1 6.0 6.0 6.0 6.0 3.15 8.95 3.15 8.95 5.95 11.8 5.95" fill="#fe0000" fill-rule="evenodd" stroke="none"/>
    <path d="M11.8 5.95 L8.95 5.95 8.95 3.15 6.0 3.15 6.0 6.0 3.1 6.0 3.1 8.85 6.0 8.85 6.0 11.75 8.95 11.75 8.95 8.85 11.8 8.85 11.8 5.95 Z" ffdec:has-small-stroke="true" ffdec:original-stroke-width="0.3" fill="none" stroke="#b20000" stroke-linecap="round" stroke-linejoin="round" stroke-width="1.0"/>
  </g>
</svg>
